<svg xmlns="http://www.w3.org/2000/svg" xmlns:xlink="http://www.w3.org/1999/xlink" width="500" zoomAndPan="magnify" viewBox="0 0 375 374.999991" height="500" preserveAspectRatio="xMidYMid meet" version="1.0"><path fill="#ffffff" d="M 205.507812 131.265625 L 205.507812 161.753906 L 243.890625 161.753906 L 238.523438 203.453125 L 205.507812 203.453125 L 205.507812 299.019531 L 163.648438 299.019531 L 163.648438 203.453125 L 127.789062 203.453125 L 127.789062 161.753906 L 163.648438 161.753906 L 163.648438 131.265625 C 163.648438 98.25 190.34375 75.980469 223.355469 75.980469 C 237.890625 75.980469 247.050781 78.191406 247.050781 78.191406 L 247.050781 113.417969 L 223.355469 113.417969 C 213.5625 113.417969 205.507812 121.472656 205.507812 131.265625 Z M 205.507812 131.265625 " fill-opacity="1" fill-rule="nonzero"/><path fill="#ffffff" d="M 187.5 375 C 84.191406 375 0 290.964844 0 187.5 C 0 84.035156 84.191406 0 187.5 0 C 290.964844 0 375 84.191406 375 187.5 C 375 290.804688 290.964844 375 187.5 375 Z M 187.5 10.265625 C 89.722656 10.265625 10.265625 89.722656 10.265625 187.5 C 10.265625 285.277344 89.722656 364.734375 187.5 364.734375 C 285.277344 364.734375 364.734375 285.277344 364.734375 187.5 C 364.734375 89.722656 285.277344 10.265625 187.5 10.265625 Z M 187.5 10.265625 " fill-opacity="1" fill-rule="nonzero"/></svg>