<svg xmlns="http://www.w3.org/2000/svg" xmlns:xlink="http://www.w3.org/1999/xlink" width="500" zoomAndPan="magnify" viewBox="0 0 375 374.999991" height="500" preserveAspectRatio="xMidYMid meet" version="1.0"><path fill="#ffffff" d="M 236.46875 79.769531 L 138.691406 79.769531 C 106.308594 79.769531 79.929688 106.148438 79.929688 138.53125 L 79.929688 236.308594 C 79.929688 268.691406 106.308594 295.070312 138.691406 295.070312 L 236.46875 295.070312 C 268.851562 295.070312 295.230469 268.691406 295.230469 236.308594 L 295.230469 138.691406 C 295.230469 106.148438 268.851562 79.769531 236.46875 79.769531 Z M 276.75 236.46875 C 276.75 258.742188 258.742188 276.75 236.46875 276.75 L 138.691406 276.75 C 116.417969 276.75 98.25 258.742188 98.25 236.46875 L 98.25 138.691406 C 98.25 116.417969 116.417969 98.25 138.691406 98.25 L 236.46875 98.25 C 258.742188 98.25 276.75 116.257812 276.75 138.691406 Z M 276.75 236.46875 " fill-opacity="1" fill-rule="nonzero"/><path fill="#ffffff" d="M 259.53125 128.582031 C 259.53125 135.847656 253.6875 141.847656 246.261719 141.847656 C 238.996094 141.847656 232.992188 136.003906 232.992188 128.582031 C 232.992188 121.3125 238.835938 115.3125 246.261719 115.3125 C 253.6875 115.46875 259.53125 121.3125 259.53125 128.582031 Z M 259.53125 128.582031 " fill-opacity="1" fill-rule="nonzero"/><path fill="#ffffff" d="M 187.5 132.6875 C 157.328125 132.6875 132.6875 157.328125 132.6875 187.5 C 132.6875 217.671875 157.328125 242.3125 187.5 242.3125 C 217.671875 242.3125 242.3125 217.671875 242.3125 187.5 C 242.3125 157.328125 217.828125 132.6875 187.5 132.6875 Z M 187.5 223.832031 C 167.4375 223.832031 151.167969 207.5625 151.167969 187.5 C 151.167969 167.4375 167.4375 151.167969 187.5 151.167969 C 207.5625 151.167969 223.832031 167.4375 223.832031 187.5 C 223.832031 207.5625 207.5625 223.832031 187.5 223.832031 Z M 187.5 223.832031 " fill-opacity="1" fill-rule="nonzero"/><path fill="#ffffff" d="M 187.5 375 C 84.191406 375 0 290.964844 0 187.5 C 0 84.191406 84.191406 0 187.5 0 C 290.964844 0 375 84.191406 375 187.5 C 375 290.964844 290.964844 375 187.5 375 Z M 187.5 10.265625 C 89.722656 10.265625 10.265625 89.722656 10.265625 187.5 C 10.265625 285.277344 89.722656 364.734375 187.5 364.734375 C 285.277344 364.734375 364.734375 285.277344 364.734375 187.5 C 364.734375 89.722656 285.277344 10.265625 187.5 10.265625 Z M 187.5 10.265625 " fill-opacity="1" fill-rule="nonzero"/></svg>