<svg xmlns="http://www.w3.org/2000/svg" xmlns:xlink="http://www.w3.org/1999/xlink" width="500" zoomAndPan="magnify" viewBox="0 0 375 374.999991" height="500" preserveAspectRatio="xMidYMid meet" version="1.0"><path fill="#ffffff" d="M 197.765625 73.292969 C 140.425781 73.292969 93.828125 119.890625 93.828125 177.234375 C 93.828125 196.03125 98.882812 214.195312 108.363281 230.148438 L 94.304688 280.855469 L 147.535156 268.21875 C 162.859375 276.75 180.074219 281.171875 197.765625 281.171875 C 255.105469 281.171875 301.707031 234.574219 301.707031 177.234375 C 301.707031 119.890625 255.105469 73.292969 197.765625 73.292969 Z M 197.765625 264.109375 C 181.972656 264.109375 166.648438 259.847656 153.222656 251.949219 L 150.222656 250.210938 L 118.472656 257.636719 L 126.84375 227.464844 L 124.789062 224.304688 C 115.785156 210.40625 111.046875 193.976562 111.046875 177.234375 C 111.046875 129.371094 150.0625 90.355469 197.925781 90.355469 C 245.789062 90.355469 284.804688 129.371094 284.804688 177.234375 C 284.644531 225.253906 245.628906 264.109375 197.765625 264.109375 Z M 197.765625 264.109375 " fill-opacity="1" fill-rule="nonzero"/><path fill="#ffffff" d="M 247.210938 214.667969 C 246.417969 218.933594 237.257812 224.304688 231.414062 225.882812 C 216.878906 229.675781 196.503906 218.617188 176.285156 201.085938 C 155.90625 183.394531 142.164062 164.753906 144.0625 149.90625 C 144.691406 144.0625 148.957031 134.109375 153.0625 132.84375 C 157.011719 131.582031 159.855469 132.6875 163.964844 134.109375 C 166.015625 136.320312 168.542969 139.164062 171.386719 142.324219 C 175.179688 146.589844 177.707031 150.535156 179.445312 153.222656 C 180.707031 155.433594 180.234375 158.277344 178.339844 160.015625 L 171.386719 166.175781 C 170.125 167.28125 169.648438 169.175781 170.441406 170.597656 C 172.652344 175.179688 177.707031 184.65625 185.128906 191.132812 C 192.554688 197.609375 202.664062 201.242188 207.402344 202.820312 C 208.984375 203.296875 210.71875 202.664062 211.667969 201.242188 L 216.878906 193.503906 C 218.300781 191.449219 221.144531 190.5 223.515625 191.449219 C 226.359375 192.710938 230.625 194.609375 235.363281 197.765625 C 238.996094 200.136719 241.996094 202.347656 244.523438 204.085938 C 246.417969 207.878906 248 210.5625 247.210938 214.667969 Z M 247.210938 214.667969 " fill-opacity="1" fill-rule="nonzero"/><path fill="#ffffff" d="M 187.5 375 C 84.191406 375 0 290.964844 0 187.5 C 0 84.191406 84.191406 0 187.5 0 C 290.804688 0 375 84.191406 375 187.5 C 375 290.964844 290.964844 375 187.5 375 Z M 187.5 10.265625 C 89.722656 10.265625 10.265625 89.722656 10.265625 187.5 C 10.265625 285.277344 89.722656 364.734375 187.5 364.734375 C 285.277344 364.734375 364.734375 285.277344 364.734375 187.5 C 364.734375 89.722656 285.277344 10.265625 187.5 10.265625 Z M 187.5 10.265625 " fill-opacity="1" fill-rule="nonzero"/></svg>